<?xml version="1.0" encoding="UTF-8"?>
<svg version="1.1" xmlns="http://www.w3.org/2000/svg" width="1920" height="1920">
<path d="M0 0 C633.6 0 1267.2 0 1920 0 C1920 633.6 1920 1267.2 1920 1920 C1286.4 1920 652.8 1920 0 1920 C0 1286.4 0 652.8 0 0 Z " fill="#FEFEFE" transform="translate(0,0)"/>
<path d="M0 0 C128.7 0 257.4 0 390 0 C390 99.99 390 199.98 390 303 C425.64 303 461.28 303 498 303 C498 367.35 498 431.7 498 498 C298.02 498 98.04 498 -108 498 C-108 433.65 -108 369.3 -108 303 C-72.36 303 -36.72 303 0 303 C0 203.01 0 103.02 0 0 Z " fill="#030303" transform="translate(938,484)"/>
<path d="M0 0 C1.76065796 0.0155896 1.76065796 0.0155896 3.55688477 0.03149414 C7.10135665 0.08093856 10.64386092 0.15940997 14.1875 0.25 C15.1765332 0.26981934 16.16556641 0.28963867 17.18457031 0.31005859 C44.82747013 1.06065273 74.44638213 9.19945465 99.22998047 21.296875 C101.16983061 22.2413967 103.11750256 23.16808204 105.06640625 24.09375 C117.49304427 30.07258954 129.47193567 37.01226559 140.61816406 45.14672852 C142.30923914 46.37211371 142.30923914 46.37211371 144.73046875 47.703125 C148.02158972 49.77511849 150.68879039 52.32746735 153.5 55 C154.66065291 56.08940041 155.82210736 57.17794749 156.984375 58.265625 C157.81678711 59.04583008 157.81678711 59.04583008 158.66601562 59.84179688 C160.4868802 61.52709001 162.35851194 63.14461938 164.25 64.75 C173.45612549 72.75194874 181.79022501 81.55535993 189.1875 91.25 C189.67331543 91.88647461 190.15913086 92.52294922 190.65966797 93.17871094 C208.52762286 116.77167077 223.49568883 143.17212649 230.62011719 172.04296875 C231.39277502 175.04848804 232.36401117 177.9834279 233.3125 180.9375 C244.85660513 223.03953047 241.14235748 268.76576018 229.1875 310.25 C228.96465332 311.07113281 228.74180664 311.89226562 228.51220703 312.73828125 C226.69006462 319.2340591 224.0816096 325.1663982 221.1875 331.25 C220.35065443 333.07380236 219.51471728 334.89802181 218.6796875 336.72265625 C208.33286308 358.96419317 195.92149167 379.12428553 179.14453125 397.140625 C177.35833919 399.06586196 175.67988076 401.04497572 174 403.0625 C160.26470792 418.71507541 143.01952771 431.63034885 125.1875 442.25 C124.52202148 442.64783691 123.85654297 443.04567383 123.17089844 443.45556641 C111.28329261 450.4855465 98.96885745 456.05476852 86.1875 461.25 C84.46466797 461.97316406 84.46466797 461.97316406 82.70703125 462.7109375 C69.18274527 468.20463193 54.67761673 472.4205448 40.1875 474.25 C38.94734131 474.41491943 37.70718262 474.57983887 36.42944336 474.74975586 C24.58041136 476.24742672 12.8722828 476.6104752 0.9375 476.5625 C-0.00682892 476.56067719 -0.95115784 476.55885437 -1.92410278 476.55697632 C-15.74141077 476.51210117 -29.2538906 476.15500418 -42.8125 473.25 C-43.59818359 473.08902832 -44.38386719 472.92805664 -45.19335938 472.76220703 C-65.34737325 468.52204364 -85.901471 462.25276377 -103.95996094 452.25488281 C-105.9020492 451.20142534 -107.86929572 450.21776816 -109.8515625 449.2421875 C-127.13178242 440.63333479 -142.54801497 429.1952755 -156.8125 416.25 C-157.38613281 415.73663086 -157.95976562 415.22326172 -158.55078125 414.69433594 C-165.04625694 408.87937294 -171.2927346 403.0176146 -176.8125 396.25 C-177.77417058 395.1114983 -178.7364741 393.97353109 -179.69921875 392.8359375 C-192.30118157 377.80181677 -202.76612928 361.64416493 -211.8125 344.25 C-212.16795898 343.57179199 -212.52341797 342.89358398 -212.88964844 342.19482422 C-218.94417028 330.48657283 -223.06559765 318.24109512 -227.03198242 305.69311523 C-227.64211801 303.78331643 -228.28872157 301.88515881 -228.94921875 299.9921875 C-230.62847566 294.65807732 -231.42048608 289.11705847 -232.38993835 283.61927795 C-232.65898894 282.11072738 -232.93310715 280.60306544 -233.21394348 279.09666443 C-235.57889411 266.37334907 -236.29975174 254.05150696 -236.1875 241.125 C-236.18351196 240.18899963 -236.17952393 239.25299927 -236.17541504 238.28863525 C-236.0717954 217.49341297 -234.38945683 197.35410783 -228.8125 177.25 C-228.61366211 176.5178125 -228.41482422 175.785625 -228.20996094 175.03125 C-226.19168225 167.65300427 -224.15698019 160.35510464 -220.8203125 153.4453125 C-219.60886233 150.80641717 -218.66714407 148.10841249 -217.6875 145.375 C-210.51550377 126.61410743 -199.52777031 108.7542329 -186.8125 93.25 C-186.2246875 92.49074219 -185.636875 91.73148437 -185.03125 90.94921875 C-179.36382076 83.66750126 -173.16318075 76.93321126 -166.8125 70.25 C-166.02617187 69.42113281 -165.23984375 68.59226562 -164.4296875 67.73828125 C-158.92858253 62.08929711 -152.99789243 57.13059669 -146.8125 52.25 C-145.83667969 51.45722656 -144.86085938 50.66445313 -143.85546875 49.84765625 C-124.8769761 34.73647908 -102.63649861 22.4412795 -79.8125 14.25 C-78.07226562 13.60998047 -78.07226562 13.60998047 -76.296875 12.95703125 C-61.36220001 7.70403409 -46.05714628 4.08327138 -30.28125 2.70703125 C-26.67759395 2.38732163 -23.14909962 1.81608009 -19.58203125 1.21484375 C-13.01808538 0.18409838 -6.63581169 -0.05952504 0 0 Z " fill="#020202" transform="translate(633.8125,353.75)"/>
<path d="M0 0 C1.59630203 -0.00352835 1.59630203 -0.00352835 3.22485259 -0.00712797 C6.79095892 -0.0137851 10.35702853 -0.01336074 13.92314053 -0.01294994 C16.50575533 -0.01625059 19.08836962 -0.01997659 21.67098325 -0.02409142 C28.02453964 -0.03339309 34.37808906 -0.03733534 40.7316514 -0.03961039 C48.34412201 -0.04257876 55.95658343 -0.05127979 63.5690492 -0.06002467 C81.96545114 -0.08084268 100.36185466 -0.09133417 118.75826563 -0.10015428 C127.46388558 -0.10436402 136.16950485 -0.10958553 144.87512423 -0.11483881 C174.68584936 -0.13272551 204.49657469 -0.1477213 234.30730438 -0.155159 C236.17786112 -0.15563375 238.04841786 -0.15610964 239.9189746 -0.15658666 C240.84658112 -0.15682303 241.77418763 -0.15705941 242.72990343 -0.15730295 C247.42944255 -0.15850412 252.12898166 -0.15971958 256.82852077 -0.16094494 C257.76114902 -0.16118509 258.69377727 -0.16142524 259.65466698 -0.16167267 C289.89333636 -0.16956576 320.13196652 -0.19299962 350.37061877 -0.22550088 C382.35445572 -0.25981506 414.33826972 -0.27951152 446.32212538 -0.28280324 C449.83457149 -0.28322077 453.34701759 -0.28370033 456.85946369 -0.28422642 C458.15672081 -0.28441121 458.15672081 -0.28441121 459.48018515 -0.28459973 C473.38406539 -0.28692955 487.28789998 -0.30257713 501.19176397 -0.32306826 C515.17226589 -0.34334519 529.1527131 -0.34879469 543.133227 -0.33929763 C551.43278879 -0.33409025 559.73216813 -0.33992404 568.03170358 -0.3618323 C574.2379852 -0.37697322 580.44408297 -0.37107076 586.65036374 -0.35716178 C589.15440362 -0.35478353 591.65846117 -0.35912045 594.16247404 -0.37099043 C607.44937537 -0.43005577 619.44382861 -0.03125542 632.14517117 4.13422108 C632.93692385 4.37811138 633.72867654 4.62200169 634.54442173 4.87328261 C645.18685902 8.28599607 654.88908305 14.74168576 663.14517117 22.13422108 C664.0513821 22.93472889 664.95759304 23.7352367 665.89126492 24.56000233 C682.39556202 40.0113207 690.24742448 60.21193742 691.25414408 82.552486 C691.43778893 88.83790014 691.42013325 95.12328473 691.4080267 101.41076851 C691.41133282 103.52561828 691.41550848 105.64046683 691.4204669 107.75531337 C691.43153135 113.54816714 691.43026812 119.3409614 691.42691172 125.13382232 C691.42544344 131.4432114 691.43550957 137.75258412 691.44406176 144.06196612 C691.45743076 155.11399903 691.46341516 166.16601603 691.46433163 177.21805668 C691.4653382 189.07129796 691.47065022 200.92452561 691.48114681 212.77776241 C691.48180708 213.52768769 691.48246735 214.27761296 691.48314762 215.05026324 C691.48584777 218.10482515 691.48857311 221.15938704 691.49133183 224.2139489 C691.52388839 260.32616803 691.53670214 296.4383845 691.54622757 332.55061581 C691.55099811 350.53547359 691.55840578 368.52032987 691.56630177 386.50518651 C691.59162422 444.21607928 691.61319432 501.926972 691.61998268 559.63787023 C691.62030716 562.39441001 691.62063828 565.15094978 691.62097145 567.90748955 C691.62163904 573.43559117 691.6223 578.96369279 691.62296057 584.49179441 C691.62373436 590.96358788 691.62451357 597.43538135 691.6253027 603.90717482 C691.62552754 605.7594395 691.62575037 607.61170417 691.6259712 609.46396885 C691.63307167 668.96582303 691.66323886 728.46762893 691.70984669 787.96946468 C691.74333609 830.74095613 691.77428213 873.51243846 691.78331661 916.28394318 C691.78350358 917.1637617 691.78369056 918.04358023 691.78388319 918.95005993 C691.78792148 938.26520457 691.79023341 957.58034908 691.79094036 976.89549412 C691.7912127 983.80691362 691.79163068 990.7183331 691.79212687 997.62975259 C691.79224999 999.34908438 691.79236663 1001.06841618 691.79247677 1002.78774798 C691.79431517 1030.16598485 691.81423633 1057.54417123 691.84339174 1084.92239149 C691.8726417 1112.49966568 691.88269603 1140.07687799 691.86655266 1167.65416495 C691.86432204 1171.46826873 691.86230068 1175.28237259 691.86040401 1179.09647655 C691.86002408 1179.84411074 691.85964414 1180.59174492 691.85925269 1181.36203469 C691.8537944 1193.17993077 691.86844027 1204.99771207 691.89155075 1216.81558321 C691.91387761 1228.44804587 691.91415045 1240.08031243 691.89281038 1251.71278174 C691.88202081 1257.93024871 691.88062338 1264.14731826 691.90582782 1270.36475239 C691.92860059 1276.02967716 691.92335461 1281.69388327 691.89649367 1287.35878382 C691.89165369 1289.38691367 691.89669403 1291.41509977 691.91328663 1293.44316752 C692.10304553 1318.28557374 684.87411056 1338.4738766 668.14517117 1357.13422108 C667.53286648 1357.84062733 666.92056179 1358.54703358 666.28970242 1359.27484608 C660.50220107 1365.54361086 653.44048025 1369.83677756 646.14517117 1374.13422108 C645.2879446 1374.6421117 644.43071804 1375.15000233 643.54751492 1375.67328358 C634.24476274 1380.73621715 622.13380419 1384.25675736 611.50251895 1384.26072091 C610.59222532 1384.26348065 609.68193168 1384.2662404 608.74405339 1384.26908377 C607.75091365 1384.26702845 606.75777391 1384.26497313 605.73453903 1384.26285553 C604.66977873 1384.26460857 603.60501842 1384.2663616 602.50799266 1384.26816776 C598.91595475 1384.27284472 595.32395702 1384.27035789 591.73191738 1384.26793385 C589.14022926 1384.26980097 586.54854143 1384.27210127 583.95685405 1384.27479917 C578.30943127 1384.27995664 572.66201707 1384.28136977 567.01459217 1384.28034306 C558.61651673 1384.27881999 550.2184508 1384.28297577 541.82037721 1384.28821768 C525.94899862 1384.29789725 510.07762325 1384.30070216 494.20624206 1384.30127474 C481.95005677 1384.30173401 469.69387275 1384.30379093 457.43768787 1384.30697536 C453.911693 1384.30787289 450.38569812 1384.3087627 446.85970324 1384.30965024 C445.98316391 1384.30987129 445.10662458 1384.31009234 444.20352345 1384.31032009 C419.54181162 1384.31647587 394.88010023 1384.32042049 370.2183876 1384.31997681 C369.28825077 1384.31996123 368.35811393 1384.31994565 367.39979112 1384.3199296 C362.68531538 1384.31984649 357.97083964 1384.31974745 353.25636391 1384.31964489 C351.85186084 1384.31961497 351.85186084 1384.31961497 350.41898397 1384.31958445 C348.52548436 1384.31954401 346.63198474 1384.31950222 344.73848512 1384.31945906 C315.2798853 1384.31884633 285.82129699 1384.32635181 256.36270046 1384.34003162 C223.27661013 1384.35538957 190.19052736 1384.36399801 157.10443324 1384.3630684 C153.57686659 1384.36299377 150.04929994 1384.36294506 146.52173328 1384.36291409 C145.65313836 1384.36290243 144.78454344 1384.36289078 143.88962746 1384.36287877 C129.90625276 1384.36284798 115.92288803 1384.36923633 101.93951629 1384.37784635 C87.88694646 1384.38632004 73.83439125 1384.38731502 59.78182027 1384.38073703 C51.43219131 1384.37703938 43.08260674 1384.37888015 34.73298248 1384.38867937 C28.49992841 1384.39537676 22.26692178 1384.39163177 16.03386994 1384.38380615 C13.51097767 1384.38226443 10.9880806 1384.38411245 8.46519396 1384.38966622 C5.03838657 1384.39671106 1.61180856 1384.39144439 -1.814991 1384.38311005 C-2.79642491 1384.38807823 -3.77785881 1384.39304641 -4.78903314 1384.39816514 C-26.6171538 1384.28578972 -46.56809779 1374.39538902 -61.85482883 1359.13422108 C-62.62568821 1358.37496326 -63.39654758 1357.61570545 -64.19076633 1356.83343983 C-78.63084924 1341.77731242 -87.19880132 1320.84711023 -87.10092449 1300.10835743 C-87.10323218 1298.90544648 -87.10553987 1297.70253553 -87.10791749 1296.46317273 C-87.11229645 1293.1267216 -87.10772054 1289.79050112 -87.09936122 1286.45407209 C-87.09247866 1282.82348348 -87.09723711 1279.19290701 -87.1005162 1275.56231594 C-87.10466058 1269.20025037 -87.10138142 1262.83822223 -87.09323978 1256.476161 C-87.08116713 1247.01602264 -87.08056842 1237.55590787 -87.08232376 1228.09576321 C-87.08495142 1212.18212272 -87.07826927 1196.26849883 -87.06628895 1180.35486317 C-87.0544566 1164.59741604 -87.0467574 1148.83997583 -87.04458332 1133.0825243 C-87.0443771 1131.61312842 -87.0443771 1131.61312842 -87.04416672 1130.11404777 C-87.04349005 1125.13920769 -87.04288729 1120.1643676 -87.04231296 1115.18952751 C-87.03811168 1079.94891936 -87.02463565 1044.70832024 -87.00570774 1009.46771717 C-86.98734027 975.23106401 -86.97317236 940.99441333 -86.96469212 906.75775623 C-86.96442906 905.70251091 -86.96416601 904.64726559 -86.96389499 903.56004314 C-86.96125796 892.96287637 -86.95870633 882.36570958 -86.95621727 871.76854278 C-86.95114479 850.18071862 -86.94550228 828.59289461 -86.93951511 807.00507069 C-86.93924053 806.01248834 -86.93896595 805.01990599 -86.93868305 803.99724539 C-86.92028043 737.7095668 -86.88843622 671.42189347 -86.85482883 605.13422108 C-72.66482883 605.13422108 -58.47482883 605.13422108 -43.85482883 605.13422108 C-43.85244048 608.71531097 -43.85005213 612.29640087 -43.8475914 615.98600864 C-43.80545736 678.64920981 -43.75951286 741.31240729 -43.69584751 803.97559071 C-43.69435416 805.44698628 -43.69435416 805.44698628 -43.69283064 806.94810702 C-43.67117224 828.2662319 -43.64884956 849.58435604 -43.62584255 870.90247951 C-43.61456401 881.35684246 -43.60343226 891.81120555 -43.59237766 902.26556873 C-43.59072381 903.82607311 -43.59072381 903.82607311 -43.58903656 905.41810282 C-43.55336636 939.13998294 -43.52738995 972.86186206 -43.50643915 1006.58375427 C-43.48485876 1041.23661814 -43.45350147 1075.88945974 -43.4098377 1110.54230317 C-43.40367544 1115.43648046 -43.39762496 1120.33065788 -43.39164257 1125.2248354 C-43.39046169 1126.1880822 -43.38928081 1127.15132901 -43.38806414 1128.14376512 C-43.36934074 1143.65101209 -43.3609275 1159.15824834 -43.35636759 1174.66550523 C-43.35156369 1190.25454076 -43.33590319 1205.84353542 -43.30916318 1221.43254903 C-43.29360524 1230.69489186 -43.28636906 1239.95715408 -43.29105954 1249.21950925 C-43.29337323 1255.40886152 -43.28482542 1261.59813766 -43.26750472 1267.78746595 C-43.25794854 1271.31273437 -43.25305913 1274.8378346 -43.26143321 1278.36310992 C-43.26794419 1282.16635953 -43.25603978 1285.96913007 -43.23958969 1289.77233982 C-43.24900473 1291.40239673 -43.24900473 1291.40239673 -43.25860998 1293.06538409 C-43.16506794 1304.80559117 -40.5974182 1314.4796651 -33.85482883 1324.13422108 C-33.13295383 1325.18609608 -32.41107883 1326.23797108 -31.66732883 1327.32172108 C-22.55774179 1336.43130812 -11.56131684 1340.4255555 1.19748986 1340.53495494 C2.15475783 1340.52821728 3.1120258 1340.52147963 4.09830189 1340.51453781 C5.67408803 1340.52152769 5.67408803 1340.52152769 7.28170824 1340.52865878 C10.78933382 1340.54057566 14.29656969 1340.53122585 17.80419827 1340.52190113 C20.34943108 1340.52607547 22.89466204 1340.53155354 25.43988955 1340.53822094 C30.96733131 1340.54966377 36.49465529 1340.55180965 42.02210331 1340.54567051 C50.24180566 1340.53656566 58.46142972 1340.54462253 66.68112607 1340.55596175 C81.36356105 1340.575617 96.0459607 1340.57797826 110.7284057 1340.57276655 C123.57858136 1340.56820754 136.42874305 1340.56881085 149.27891827 1340.5746069 C151.00331634 1340.57536376 152.72771442 1340.57611975 154.4521125 1340.57687484 C157.05069701 1340.57802005 159.6492815 1340.57916993 162.247866 1340.58033408 C186.40374154 1340.59103744 210.55961242 1340.59576601 234.71548939 1340.58786392 C235.62586015 1340.58756675 236.53623092 1340.58726958 237.47418868 1340.5869634 C244.86681111 1340.58451452 252.25943349 1340.5819029 259.65205586 1340.57927926 C288.48734818 1340.56917702 317.32258227 1340.57753247 346.15786648 1340.60077381 C378.5639394 1340.62685103 410.96997727 1340.63969313 443.37606108 1340.63258606 C446.83197156 1340.63187001 450.28788204 1340.63119562 453.74379253 1340.63054562 C454.59470838 1340.63037581 455.44562422 1340.630206 456.32232539 1340.63003104 C469.16190152 1340.62772897 482.00144508 1340.63570068 494.84101391 1340.64883709 C509.44438845 1340.66375156 524.0476867 1340.66458715 538.65105961 1340.64676618 C546.82017084 1340.63720727 554.98910409 1340.63862963 563.15820341 1340.65600087 C569.26198159 1340.66773628 575.36554032 1340.65850259 581.46931298 1340.6411785 C583.93555099 1340.63740856 586.40181053 1340.64036892 588.8680294 1340.65079015 C605.59644502 1340.71644367 620.654628 1340.46039361 634.14517117 1329.13422108 C640.17909344 1322.60255101 643.61704931 1315.58986028 646.14517117 1307.13422108 C646.47517117 1306.14422108 646.80517117 1305.15422108 647.14517117 1304.13422108 C647.24159578 1301.39214365 647.28023133 1298.67567705 647.27282166 1295.93352181 C647.27447244 1295.0818937 647.27612322 1294.2302656 647.27782402 1293.35283058 C647.28217518 1290.46805508 647.27933954 1287.58332997 647.27659893 1284.69855309 C647.27824733 1282.61294928 647.28033303 1280.52734578 647.28281903 1278.44174281 C647.28841146 1272.66488707 647.28770858 1266.88804609 647.28604144 1261.11118851 C647.28531319 1254.84358845 647.29032659 1248.57599264 647.29461646 1242.30839437 C647.30132872 1231.30825354 647.30429483 1220.30811749 647.3047514 1209.30797482 C647.30525329 1197.5004661 647.30789512 1185.69296081 647.31315899 1173.88545322 C647.31348912 1173.14061527 647.31381926 1172.39577731 647.31415939 1171.6283685 C647.31550935 1168.59491037 647.31687201 1165.56145225 647.3182515 1162.52799414 C647.3345676 1126.58550311 647.34094191 1090.64301274 647.34569937 1054.70051864 C647.34808131 1036.80646438 647.35178454 1018.91241051 647.35573647 1001.01835654 C647.36840237 943.63663648 647.37918595 886.25491643 647.38257692 828.87319499 C647.38273916 826.12972266 647.38290472 823.38625033 647.38307131 820.642778 C647.38340511 815.14057739 647.38373559 809.63837678 647.38406587 804.13617617 C647.38445277 797.69425214 647.38484238 791.2523281 647.38523693 784.81040407 C647.38534935 782.96666336 647.38546077 781.12292265 647.38557119 779.27918194 C647.38912067 720.06393104 647.40419844 660.84869228 647.42750893 601.63344602 C647.4442487 559.09243446 647.45972489 516.5514252 647.46424389 474.01041031 C647.46433737 473.13566723 647.46443086 472.26092415 647.46452718 471.35967371 C647.46654617 452.15743448 647.46770226 432.95519529 647.46805577 413.75295596 C647.46819194 406.88203679 647.46840094 400.01111763 647.46864902 393.14019847 C647.46871058 391.43084524 647.4687689 389.72149201 647.46882397 388.01213878 C647.46974409 360.7652294 647.47971604 333.51833267 647.49428145 306.27142745 C647.50889316 278.82809184 647.51394197 251.38477176 647.50586191 223.94143294 C647.50474652 220.14948815 647.50373587 216.35754333 647.50278759 212.56559849 C647.50259762 211.82226849 647.50240765 211.07893849 647.50221193 210.31308333 C647.49947778 198.54091099 647.50682187 186.76876737 647.51836096 174.99660127 C647.52949687 163.42202389 647.52968698 151.84750082 647.51899077 140.27292019 C647.51357858 134.08075538 647.51295334 127.88869049 647.52549949 121.69653381 C647.53681714 116.06384744 647.53433732 110.43134251 647.52083242 104.7986625 C647.51839589 102.7731333 647.52099132 100.74759022 647.5292289 98.7220763 C647.58636981 83.68374638 647.11842786 70.29262952 637.14517117 58.13422108 C626.37087681 47.69333322 615.18643346 43.82253484 600.4071188 43.85574818 C599.46837904 43.84995577 598.52963927 43.84416337 597.56245285 43.83819544 C594.43951807 43.82128765 591.31673189 43.81832691 588.19375515 43.81537342 C585.94614713 43.80606888 583.69854256 43.79589943 581.45094204 43.78493214 C575.36489952 43.75767742 569.27888009 43.7424961 563.19279265 43.72950411 C556.82663662 43.71385379 550.46052759 43.68706961 544.09440517 43.66147327 C533.41431848 43.62002825 522.73423175 43.58542434 512.05410671 43.55609608 C501.05701757 43.52587858 490.05995419 43.49151368 479.06289577 43.45160389 C478.38422529 43.44914234 477.70555481 43.44668079 477.00631856 43.44414465 C473.60138578 43.43176943 470.19645329 43.41931301 466.79152095 43.40681624 C438.57610688 43.30336504 410.3606606 43.21426994 382.14517117 43.13422108 C382.1556448 44.11181385 382.16611843 45.08940662 382.17690945 46.09662342 C382.21346091 49.76813477 382.23619779 53.43963047 382.25503445 57.11127186 C382.26501275 58.69202866 382.27860023 60.27276738 382.29605007 61.85345936 C382.57372809 87.6775147 374.38711366 109.21761215 356.14517117 128.13422108 C345.78299711 137.83638404 332.64549137 145.18839745 318.86782742 148.66156483 C317.12838971 148.98606713 317.12838971 148.98606713 316.14517117 150.13422108 C291.84611265 154.11043065 267.56911563 150.69473793 246.87173367 136.96234608 C237.04611394 129.78494124 229.84532515 122.12524756 223.12563992 112.08734608 C221.2934438 109.24980143 221.2934438 109.24980143 219.57485867 107.23187733 C209.85826981 92.97557072 210.04192579 74.08316863 210.10610867 57.61468983 C210.10924941 56.20726044 210.1121001 54.79983037 210.11465359 53.39239979 C210.12198037 49.97298935 210.13223663 46.55361414 210.14517117 43.13422108 C182.02452706 43.19477422 153.90397383 43.27228748 125.78343296 43.36993599 C112.7262862 43.4148824 99.66916665 43.45429982 86.61196804 43.48065662 C75.22999631 43.50364595 63.84811076 43.53705461 52.46620739 43.58292264 C46.44078762 43.60684206 40.41545314 43.6255793 34.38998699 43.63183498 C28.71501206 43.63789152 23.04025531 43.65791237 17.36536121 43.68849659 C15.286153 43.69726762 13.20691627 43.70100134 11.12769032 43.69922924 C8.28016871 43.69756906 5.43330637 43.71433919 2.58587551 43.73549366 C1.77066815 43.73064608 0.95546078 43.72579851 0.11555016 43.72080404 C-7.47985452 43.81338663 -14.91114823 45.6556139 -21.54232883 49.44672108 C-22.20619602 49.81410389 -22.87006321 50.1814867 -23.55404758 50.56000233 C-30.34015349 55.20312742 -34.98942977 60.59144156 -39.66732883 67.32172108 C-40.23902805 68.12802967 -40.81072727 68.93433826 -41.39975071 69.76508045 C-43.59154059 72.86346262 -45.74952917 75.97627158 -47.85482883 79.13422108 C-50.50494911 77.86201803 -52.93939388 76.4819789 -55.35873508 74.81390858 C-56.01196751 74.3646703 -56.66519993 73.91543201 -57.33822727 73.45258045 C-58.02433079 72.97627186 -58.7104343 72.49996326 -59.41732883 72.00922108 C-60.12534641 71.52002186 -60.83336399 71.03082264 -61.56283665 70.5267992 C-68.76334087 65.53505862 -75.85313903 60.40154735 -82.85482883 55.13422108 C-82.30150412 51.37185947 -81.34975411 48.97861582 -79.11654758 45.91156483 C-78.54968235 45.13135975 -77.98281712 44.35115467 -77.39877415 43.54730701 C-76.78614719 42.73036366 -76.17352024 41.9134203 -75.54232883 41.07172108 C-74.91294407 40.22770741 -74.2835593 39.38369373 -73.63510227 38.51410389 C-60.09391091 20.67953026 -40.93298137 4.32728752 -17.97358075 0.84923642 C-11.96667895 0.1379756 -6.0448231 -0.00917272 0 0 Z " fill="#010101" transform="translate(830.8548288345337,267.86577892303467)"/>
<path d="M0 0 C24.75 0 49.5 0 75 0 C75 35.64 75 71.28 75 108 C125.16 108 175.32 108 227 108 C227 72.36 227 36.72 227 0 C251.75 0 276.5 0 302 0 C302 99.66 302 199.32 302 302 C202.34 302 102.68 302 0 302 C0 202.34 0 102.68 0 0 Z " fill="#FEFEFE" transform="translate(982,528)"/>
<path d="M0 0 C0.83266388 -0.00012085 1.66532776 -0.0002417 2.52322388 -0.00036621 C16.20765996 0.02783188 29.23189529 1.1011145 42.5625 4.375 C43.28356934 4.54580078 44.00463867 4.71660156 44.74755859 4.89257812 C49.05979385 5.92678456 53.31137507 7.1155918 57.5625 8.375 C59.18285156 8.81779297 59.18285156 8.81779297 60.8359375 9.26953125 C79.44572771 14.56408416 97.55371417 24.62179828 113.5625 35.375 C111.88502546 39.40682477 109.0942981 42.44419308 106.25 45.6875 C105.45420532 46.60511108 105.45420532 46.60511108 104.64233398 47.54125977 C103.51884475 48.83599754 102.39355854 50.12917791 101.26660156 51.42089844 C99.61860989 53.31065851 97.97620519 55.2050968 96.3359375 57.1015625 C93.62826465 60.23170328 90.91660034 63.35835158 88.20361328 66.48388672 C85.48828786 69.61285291 82.77548505 72.74400461 80.0625 75.875 C76.80204552 79.63781762 73.54104943 83.40015794 70.27734375 87.16015625 C65.0215122 93.21687642 59.77638851 99.28211546 54.5625 105.375 C47.16427059 114.02047783 39.70345028 122.61153385 32.23828125 131.19921875 C25.28314301 139.20531013 18.39078615 147.26042347 11.5625 155.375 C7.44358402 153.79527458 4.96473633 150.79284655 2.125 147.5625 C-2.99933511 141.81272593 -8.24633606 136.43962779 -14.1796875 131.51171875 C-16.12460852 129.6711101 -17.82207105 127.80953681 -19.5625 125.78125 C-23.97990151 120.66577395 -28.76256944 115.94134555 -33.5625 111.1875 C-34.88314453 109.87362305 -34.88314453 109.87362305 -36.23046875 108.53320312 C-37.91162754 106.86091923 -39.59408815 105.18994265 -41.27807617 103.52050781 C-42.96350203 101.84594338 -44.63901287 100.16293573 -46.30859375 98.47265625 C-48.26412442 96.54583062 -50.27231468 94.76298769 -52.375 93 C-56.14965789 89.74104489 -59.28618397 86.23536214 -62.4375 82.375 C-65.63935085 83.78731069 -67.78528006 85.47345461 -70.25260925 87.94287109 C-70.99710831 88.68317566 -71.74160736 89.42348022 -72.50866699 90.18621826 C-73.31557983 90.99875061 -74.12249268 91.81128296 -74.95385742 92.6484375 C-76.23979546 93.93152802 -76.23979546 93.93152802 -77.55171204 95.24053955 C-79.89816882 97.58392777 -82.24007032 99.9316948 -84.57990432 102.28168488 C-87.02917262 104.73974319 -89.48371803 107.19252148 -91.93757629 109.64599609 C-96.05579672 113.76515253 -100.17012832 117.88816091 -104.28198242 122.01367188 C-109.03884595 126.78627588 -113.80093102 131.553618 -118.56603736 136.31799126 C-123.14858472 140.89992879 -127.72827043 145.48471483 -132.30636024 150.07110596 C-134.25571909 152.02399908 -136.20592816 153.97603732 -138.15678978 155.9274292 C-140.87731426 158.64914252 -143.59356486 161.37509601 -146.30932617 164.1015625 C-147.12231171 164.91409485 -147.93529724 165.7266272 -148.7729187 166.56378174 C-149.87697807 167.67423859 -149.87697807 167.67423859 -151.00334167 168.80712891 C-151.96757946 169.77388046 -151.96757946 169.77388046 -152.95129681 170.76016235 C-154.52629513 172.32205903 -154.52629513 172.32205903 -155.4375 174.375 C-154.86773437 174.60574219 -154.29796875 174.83648438 -153.7109375 175.07421875 C-150.86212232 176.70421094 -149.19228711 178.69527543 -147.0625 181.1875 C-143.4298666 185.34699716 -143.4298666 185.34699716 -139.3125 189 C-136.90911573 190.9854044 -135.11910061 192.82834665 -133.125 195.1875 C-130.57622455 198.18639032 -127.91527556 200.80167613 -124.9375 203.375 C-122.1581293 205.78658128 -119.62394945 208.18953088 -117.25 211 C-112.22368389 216.94879295 -106.57439991 222.32047271 -101.03808594 227.78857422 C-99.5818687 229.23190851 -98.13789239 230.68756666 -96.6953125 232.14453125 C-94.38083885 234.4937799 -94.38083885 234.4937799 -91.4375 236.875 C-87.03475923 240.54395064 -83.23718831 244.5909462 -79.44140625 248.87109375 C-74.3694067 254.51500409 -69.0635273 259.89697995 -63.6875 265.25 C-62.76839844 266.17296875 -61.84929687 267.0959375 -60.90234375 268.046875 C-60.01160156 268.93632813 -59.12085938 269.82578125 -58.203125 270.7421875 C-57.40680664 271.53737793 -56.61048828 272.33256836 -55.79003906 273.15185547 C-53.43671268 275.37574402 -50.97865874 277.37099891 -48.4375 279.375 C-45.17824556 282.50409252 -42.11927191 285.78788124 -39.08618164 289.1328125 C-34.44229666 294.25217297 -29.80104321 298.99659738 -24.4375 303.375 C-21.9588525 305.79463208 -19.56347552 308.23462728 -17.25 310.8125 C-7.23954038 319.93314099 2.95308092 321.8744941 16.17578125 321.6171875 C31.41716738 320.52726139 42.07641585 310.85807433 51.6875 299.8125 C52.25210938 299.15636719 52.81671875 298.50023437 53.3984375 297.82421875 C56.30734381 294.5320089 59.30889423 291.33072131 62.3125 288.125 C73.25467017 276.4895314 73.25467017 276.4895314 83.875 264.5625 C87.93391408 259.87460166 92.20737596 255.3862177 96.44848633 250.86401367 C99.37082417 247.74236359 102.27447472 244.61821308 105.0625 241.375 C109.00412792 236.79310765 113.16986126 232.41966585 117.30200195 228.01049805 C121.37587968 223.65906538 125.39328961 219.26345294 129.3671875 214.8203125 C135.22912192 208.29082683 141.19359092 201.85309661 147.15136719 195.41113281 C151.90474195 190.27096086 156.62253513 185.10301838 161.296875 179.890625 C163.80878058 177.10154363 166.33837492 174.3290741 168.875 171.5625 C169.55369141 170.82193359 169.55369141 170.82193359 170.24609375 170.06640625 C172.77441749 167.31145405 175.31235236 164.56580197 177.859375 161.828125 C178.67668091 160.94797729 178.67668091 160.94797729 179.51049805 160.05004883 C180.56482162 158.91537155 181.6208989 157.78232057 182.67895508 156.65112305 C184.85874573 154.30396676 186.7808 152.04755 188.5625 149.375 C189.2225 149.375 189.8825 149.375 190.5625 149.375 C197.26310115 174.25656561 197.27985271 200.99541629 193.5625 226.375 C193.4500293 227.14763184 193.33755859 227.92026367 193.22167969 228.71630859 C192.87493256 231.02270238 192.50667294 233.32414369 192.125 235.625 C192.01502686 236.3044165 191.90505371 236.98383301 191.79174805 237.68383789 C190.97143391 242.26559243 189.41808544 246.12584613 187.5625 250.375 C187.06680822 251.97074557 186.59155016 253.57292864 186.1328125 255.1796875 C172.46518743 302.10342751 136.36475996 342.31455522 94.25 365.8125 C87.53275791 369.48667454 80.71934224 372.64409967 73.5625 375.375 C72.86423096 375.66971191 72.16596191 375.96442383 71.4465332 376.26806641 C64.68310595 379.09154725 57.82832348 381.12131403 50.75 383 C49.12094727 383.44859375 49.12094727 383.44859375 47.45898438 383.90625 C11.93844491 393.43460836 -30.08470077 392.48411654 -64.24853516 378.28125 C-66.88217671 377.19090007 -69.56284709 376.26203758 -72.25 375.3125 C-111.78518903 360.03859894 -143.02773045 330.75728308 -165.4375 295.375 C-166.07558594 294.36824219 -166.71367187 293.36148437 -167.37109375 292.32421875 C-171.52525715 285.4869654 -174.7615158 278.39566872 -177.859375 271.0390625 C-179.32523569 267.4766504 -179.32523569 267.4766504 -180.94921875 264.6171875 C-183.12722691 259.87244531 -184.25021507 254.93167457 -185.5 249.875 C-186.009856 247.84328164 -186.5215228 245.81201668 -187.03515625 243.78125 C-187.27588867 242.82573242 -187.51662109 241.87021484 -187.76464844 240.88574219 C-188.42941222 238.26699025 -188.42941222 238.26699025 -189.51953125 235.359375 C-199.55345059 202.73846278 -194.29778657 161.06699314 -182.75 129.625 C-182.40259766 128.67689453 -182.05519531 127.72878906 -181.69726562 126.75195312 C-178.52570987 118.2887566 -174.74708941 110.30875704 -170.4375 102.375 C-169.82390625 101.2096875 -169.2103125 100.044375 -168.578125 98.84375 C-161.73649553 86.2913389 -153.12331131 74.92985218 -143.38671875 64.4765625 C-141.64222294 62.59572333 -140.00282432 60.66881969 -138.375 58.6875 C-135.07824752 54.82481998 -131.31814865 51.63527285 -127.4375 48.375 C-126.59703125 47.63507813 -125.7565625 46.89515625 -124.890625 46.1328125 C-107.36547339 30.97984992 -87.22399694 19.22135462 -65.4375 11.375 C-64.36798096 10.98634766 -64.36798096 10.98634766 -63.27685547 10.58984375 C-53.12570961 6.94098386 -43.11116435 4.06449332 -32.4375 2.375 C-31.47384521 2.20726074 -30.51019043 2.03952148 -29.51733398 1.86669922 C-19.65145032 0.272141 -9.97629438 -0.02233471 0 0 Z " fill="#FDFDFD" transform="translate(634.4375,397.625)"/>
<path d="M0 0 C21.12 0 42.24 0 64 0 C64 14.19 64 28.38 64 43 C192.7 43 321.4 43 454 43 C454 28.81 454 14.62 454 0 C475.12 0 496.24 0 518 0 C518 35.31 518 70.62 518 107 C347.06 107 176.12 107 0 107 C0 71.69 0 36.38 0 0 Z " fill="#FEFEFE" transform="translate(874,831)"/>
<path d="M0 0 C1.216875 0.36222656 2.43375 0.72445313 3.6875 1.09765625 C29.47270296 9.43826466 48.25180702 29.49069298 60.53125 52.921875 C70.08500203 73.54399828 71.42022292 99.38444817 63.85986328 120.73901367 C53.22495947 148.70319429 38.71722247 175.23458832 22 200 C21.48969238 200.75732422 20.97938477 201.51464844 20.45361328 202.29492188 C16.67359839 207.88966572 12.84565263 213.4502367 9 219 C8.49855469 219.72719238 7.99710938 220.45438477 7.48046875 221.20361328 C1.30729993 230.14371364 -5.10689081 238.83805352 -11.83276367 247.37084961 C-16.25874955 252.99521826 -20.510838 258.72608274 -24.62524414 264.58251953 C-25.7032927 266.08966594 -26.84555955 267.55053588 -28 269 C-28.66 269 -29.32 269 -30 269 C-31.91420158 266.64056482 -33.71843405 264.26947801 -35.5 261.8125 C-36.59170726 260.33018339 -37.68416519 258.84841938 -38.77734375 257.3671875 C-39.32245605 256.6256543 -39.86756836 255.88412109 -40.42919922 255.12011719 C-42.59849116 252.19221367 -44.82703851 249.31525299 -47.0625 246.4375 C-56.47102855 234.26087042 -65.42226405 221.7745449 -74 209 C-74.56203125 208.16500977 -75.1240625 207.33001953 -75.703125 206.46972656 C-94.44023524 178.51680938 -112.44664467 148.8410453 -123.1875 116.75 C-123.67283203 115.31914063 -123.67283203 115.31914063 -124.16796875 113.859375 C-130.29712449 92.79579754 -126.20597592 67.49037965 -116.07739258 48.33081055 C-102.83286903 24.49929049 -82.11446159 6.98653312 -56.1328125 -1.40283203 C-38.05252584 -6.46514673 -17.80499951 -5.65679672 0 0 Z " fill="#020202" transform="translate(989,1029)"/>
<path d="M0 0 C1.64612629 -0.006002 3.2922498 -0.01281131 4.93836975 -0.02035522 C9.36178243 -0.03784233 13.7851175 -0.04270291 18.20856142 -0.0439868 C20.98086997 -0.04541767 23.75315936 -0.04970457 26.5254631 -0.05498123 C36.22092676 -0.07341699 45.9163358 -0.08165908 55.61181641 -0.08007812 C64.61365662 -0.07887516 73.61525771 -0.10002448 82.61703742 -0.13156545 C90.3813967 -0.15779029 98.14567808 -0.16844298 105.91008127 -0.16716731 C110.53201465 -0.16665995 115.15373455 -0.17221867 119.77562332 -0.19352341 C124.12118311 -0.21301374 128.46632781 -0.21295729 132.811903 -0.19849014 C134.39644293 -0.19641499 135.98100965 -0.20102479 137.56550407 -0.21321106 C157.01301581 -0.35297583 171.70565958 5.67882571 185.85302734 19.16552734 C186.55814453 19.86677734 187.26326172 20.56802734 187.98974609 21.29052734 C188.54017578 21.80615234 189.09060547 22.32177734 189.65771484 22.85302734 C200.47755837 33.99195473 205.56648444 51.04445537 205.47583008 66.17578125 C204.94276145 81.15454356 199.87643016 93.40976334 190.98974609 105.29052734 C190.49732422 105.98404297 190.00490234 106.67755859 189.49755859 107.39208984 C179.32404239 120.57552208 162.94880376 127.54710991 146.98974609 130.29052734 C141.49951877 130.70052994 136.03055428 130.71241417 130.52954102 130.69458008 C128.91813182 130.70029674 127.30672667 130.70726596 125.69532776 130.71537781 C121.35625931 130.73318332 117.01739449 130.73216456 112.67830062 130.72643542 C109.03813607 130.72332454 105.39800957 130.72945713 101.75785047 130.73547417 C93.16023015 130.74947703 84.56270928 130.74799416 75.96508789 130.73657227 C67.13601757 130.72510108 58.30725138 130.73915961 49.47822112 130.76596874 C41.86076527 130.78822118 34.24340421 130.79474157 26.62591821 130.78889233 C22.09273857 130.78554356 17.55975367 130.7877975 13.02660179 130.80514336 C8.759012 130.82076314 4.49186781 130.81649303 0.22429466 130.79783821 C-1.32833784 130.79419316 -2.88100449 130.79713909 -4.43360519 130.807724 C-22.03080968 130.91839343 -40.4130212 127.36945863 -54.01025391 115.29052734 C-56.49774841 112.74126661 -58.76966763 110.05772592 -61.01025391 107.29052734 C-61.62255859 106.54158203 -62.23486328 105.79263672 -62.86572266 105.02099609 C-76.14113779 88.40549784 -77.67921451 71.12502449 -76.01025391 50.29052734 C-75.17998447 45.55703724 -73.30562477 41.49381517 -71.01025391 37.29052734 C-70.53716797 36.30568359 -70.06408203 35.32083984 -69.57666016 34.30615234 C-61.69600064 19.13440883 -48.03294002 8.02292467 -32.01025391 2.29052734 C-21.38857542 0.20539021 -10.78290957 -0.00797613 0 0 Z " fill="#020202" transform="translate(1069.01025390625,1435.70947265625)"/>
<path d="M0 0 C4.1472813 1.5456303 6.38364268 4.53737551 9 7.9375 C9.46696289 8.53997559 9.93392578 9.14245117 10.41503906 9.76318359 C14.434012 15.05753544 18.14298416 20.54365705 21.75 26.125 C22.28753906 26.94218506 22.82507813 27.75937012 23.37890625 28.60131836 C23.86746094 29.37483643 24.35601563 30.14835449 24.859375 30.9453125 C25.29733398 31.63125488 25.73529297 32.31719727 26.18652344 33.02392578 C27.19667682 35.47776175 26.96086425 36.56107976 26 39 C24.3984375 40.859375 24.3984375 40.859375 22.375 42.75 C19.75389789 45.27419517 17.23819829 47.79538771 14.875 50.5625 C11.43704145 54.5577532 7.8531514 58.4044539 4.25 62.25 C-3.39130583 70.40855411 -10.97271646 78.61654057 -18.4375 86.9375 C-22.43448378 91.3920991 -26.49074409 95.78918479 -30.55615234 100.18115234 C-34.3147798 104.24611811 -38.02749843 108.34984906 -41.72265625 112.47265625 C-44.7652294 115.849234 -47.84118744 119.19480481 -50.91650391 122.54150391 C-53.77616612 125.65651092 -56.61523037 128.78860242 -59.4375 131.9375 C-63.89643915 136.90512383 -68.42438331 141.80683252 -72.95703125 146.70703125 C-75.83394762 149.81782841 -78.70049617 152.93798345 -81.5625 156.0625 C-82.01222168 156.55347168 -82.46194336 157.04444336 -82.92529297 157.55029297 C-83.83062602 158.53884515 -84.73589963 159.52745177 -85.64111328 160.51611328 C-87.92642496 163.01164407 -90.2132958 165.50574527 -92.5 168 C-93.41667404 168.99999325 -94.3333407 169.99999324 -95.25 171 C-100.75 177 -100.75 177 -102.12548828 178.50048828 C-103.04058633 179.49880661 -103.95562555 180.49717886 -104.87060547 181.49560547 C-107.18578852 184.0217842 -109.5020401 186.54696832 -111.8203125 189.0703125 C-116.22688954 193.86804201 -120.62574972 198.67275293 -125 203.5 C-126.051875 204.66015625 -126.051875 204.66015625 -127.125 205.84375 C-128.85510395 207.83336954 -130.44981703 209.86849842 -132 212 C-135.88961933 211.44076635 -137.65907385 209.71168564 -140.39129639 206.96946716 C-141.26345291 206.10143463 -142.13560944 205.2334021 -143.03419495 204.33906555 C-143.99266285 203.36998064 -144.95098627 202.4007528 -145.90917969 201.43139648 C-146.92389068 200.41583925 -147.93926278 199.40094221 -148.95524597 198.38665771 C-151.71167928 195.63108589 -154.45875874 192.86635568 -157.20427227 190.09990954 C-160.07501216 187.21042854 -162.95423773 184.32942886 -165.83258057 181.44752502 C-171.28191391 175.98886369 -176.72355417 170.52259937 -182.16248345 165.05357367 C-188.35484656 158.82769008 -194.55572023 152.61031278 -200.75732946 146.39364135 C-213.5143906 133.6052141 -226.26070525 120.80612423 -239 108 C-237.07139535 103.78323595 -234.17029862 100.91678209 -230.8984375 97.703125 C-230.30197418 97.10949158 -229.70551086 96.51585815 -229.0909729 95.90423584 C-227.1903019 94.01473373 -225.28278526 92.13231608 -223.375 90.25 C-222.08287532 88.96790935 -220.79120324 87.68536239 -219.5 86.40234375 C-216.33855521 83.26291568 -213.1709539 80.12982199 -210 77 C-207.07742561 78.32041445 -205.00741791 79.74428065 -202.74761963 82.01187134 C-202.12788773 82.62885391 -201.50815582 83.24583649 -200.86964417 83.8815155 C-200.20142136 84.55692886 -199.53319855 85.23234222 -198.84472656 85.92822266 C-198.13213181 86.64052536 -197.41953705 87.35282806 -196.68534851 88.0867157 C-194.33233549 90.4411215 -191.9864849 92.80253125 -189.640625 95.1640625 C-188.01010025 96.79831755 -186.37913324 98.43213146 -184.7477417 100.06552124 C-180.45583324 104.36506473 -176.16996486 108.67058065 -171.88531494 112.97735596 C-167.51180178 117.37133023 -163.13261921 121.75964603 -158.75390625 126.1484375 C-150.16370375 134.76008764 -141.5798698 143.37805611 -133 152 C-124.94632176 143.97826745 -117.43498595 135.63348253 -110.3125 126.78125 C-107.80028867 123.75980664 -105.17597543 120.87559922 -102.5 118 C-98.2104224 113.38998361 -94.19589103 108.62216764 -90.24609375 103.71484375 C-87.9116941 100.89326505 -85.48009402 98.19409288 -83 95.5 C-79.70668301 91.92207537 -76.55348679 88.28460334 -73.5 84.5 C-70.44651321 80.71539666 -67.29331699 77.07792463 -64 73.5 C-59.88621091 69.0301488 -56.02912703 64.40955107 -52.21484375 59.68359375 C-49.33283868 56.19164052 -46.28825009 52.86448844 -43.23828125 49.51953125 C-40.97152842 46.96795083 -38.82459913 44.34828468 -36.6875 41.6875 C-32.79744069 36.87414563 -28.67128166 32.3523855 -24.44433594 27.83886719 C-20.53386273 23.63965121 -16.90390695 19.26511749 -13.3125 14.7890625 C-9.07615736 9.67968979 -4.52840059 4.850044 0 0 Z " fill="#FCFCFC" transform="translate(780,464)"/>
<path d="M0 0 C1.65109032 1.34355899 3.27852596 2.71697989 4.875 4.125 C5.58785156 4.70636719 6.30070313 5.28773437 7.03515625 5.88671875 C16.46828037 14.26565945 22.30196971 26.97813907 23.08203125 39.4296875 C23.29954986 46.92199516 22.60430482 53.1575064 19.875 60.125 C19.39933594 61.40117188 19.39933594 61.40117188 18.9140625 62.703125 C12.52627994 78.92175024 3.99855552 94.30716818 -5.125 109.125 C-5.58632324 109.87604004 -6.04764648 110.62708008 -6.52294922 111.40087891 C-14.02467639 123.56165371 -21.96975125 135.39438537 -30.125 147.125 C-34.1657008 145.77809973 -34.88219958 143.87084688 -37.1875 140.31640625 C-37.57508484 139.7233519 -37.96266968 139.13029755 -38.36199951 138.51927185 C-39.62514813 136.58090892 -40.87565385 134.63478298 -42.125 132.6875 C-42.99482868 131.34161037 -43.86494717 129.995908 -44.73535156 128.65039062 C-46.84633259 125.38058227 -48.94515259 122.10317501 -51.03930664 118.8225708 C-51.97182494 117.36450179 -52.91015097 115.91015004 -53.84960938 114.45654297 C-65.8304912 95.89911096 -77.61297543 75.30348698 -84.125 54.125 C-84.32867188 53.46757813 -84.53234375 52.81015625 -84.7421875 52.1328125 C-87.71596592 36.53564816 -82.24791674 23.11856924 -73.91015625 10.25 C-56.44634729 -12.62075337 -22.9170757 -16.10561153 0 0 Z " fill="#FDFDFD" transform="translate(991.125,1077.875)"/>
<path d="M0 0 C71.61 0 143.22 0 217 0 C217 14.52 217 29.04 217 44 C145.39 44 73.78 44 0 44 C0 29.48 0 14.96 0 0 Z " fill="#040404" transform="translate(1198,1111)"/>
<path d="M0 0 C0.65451954 -0.00438225 1.30903907 -0.00876451 1.98339254 -0.01327956 C4.17491056 -0.02662578 6.3663884 -0.03283698 8.55793762 -0.03897095 C10.13011352 -0.04687523 11.70228763 -0.05514438 13.27445984 -0.06375122 C18.43639909 -0.08993417 23.5983463 -0.10527538 28.7603302 -0.11953735 C30.53946246 -0.12489861 32.31859466 -0.13027612 34.09772682 -0.13566971 C41.50012987 -0.15729317 48.90253077 -0.17602871 56.30495739 -0.1872921 C66.90230244 -0.20352468 77.4992805 -0.2366917 88.09648722 -0.29369295 C95.55397168 -0.33243409 103.01135814 -0.35192974 110.46894056 -0.35721266 C114.91996351 -0.36086047 119.37059468 -0.37282074 123.82150841 -0.4053154 C128.01183071 -0.43546967 132.20152568 -0.44168193 136.39193344 -0.42993164 C137.92494741 -0.42971152 139.45799113 -0.43796581 140.99090385 -0.45558548 C150.3361969 -0.55710575 158.00519816 -0.10834214 165.03845501 6.66749001 C170.0428754 12.34032443 170.92920126 16.70494008 170.7759552 24.11483765 C170.06129675 31.15286643 166.7214222 35.45021828 161.44392395 39.92733765 C156.73192598 42.85138382 152.10390879 43.40653518 146.64952087 43.42805481 C145.65799462 43.43590983 145.65799462 43.43590983 144.64643753 43.44392353 C142.44491889 43.45885248 140.24363413 43.45962709 138.04206848 43.46029663 C136.45812084 43.46792282 134.87417689 43.47635111 133.29023743 43.48551941 C128.99679686 43.50742372 124.7034275 43.51625762 120.40993738 43.52134585 C117.7253234 43.52499369 115.04072796 43.53123592 112.35612106 43.53834724 C102.98417596 43.56282587 93.6122861 43.57589058 84.24031067 43.57943726 C75.51400369 43.58307315 66.78804828 43.61297635 58.06184876 43.65484184 C50.56101567 43.68956275 43.06029903 43.70498599 35.55938613 43.70568329 C31.08329344 43.70647537 26.60755925 43.71518262 22.13154984 43.74368095 C17.92066187 43.76989327 13.7104289 43.77204951 9.49949646 43.75602531 C7.95800724 43.75421343 6.41648007 43.76087813 4.87507248 43.77684402 C-10.28181578 43.92421431 -10.28181578 43.92421431 -16.53263855 38.15390015 C-21.55187449 33.22314509 -23.81340254 28.37608122 -23.97013855 21.34140015 C-23.84522575 15.35293377 -22.61639612 11.55103959 -18.53263855 7.15390015 C-12.43857569 1.63907495 -8.21241886 0.0390497 0 0 Z " fill="#FBFBFB" transform="translate(1059.5326385498047,1478.8460998535156)"/>
<path d="M0 0 C57.09 0 114.18 0 173 0 C173 14.52 173 29.04 173 44 C115.91 44 58.82 44 0 44 C0 29.48 0 14.96 0 0 Z " fill="#040404" transform="translate(1198,1284)"/>
<path d="M0 0 C28.71 0 57.42 0 87 0 C87 39.03065363 87 39.03065363 73.140625 54.02734375 C69.77974375 57.12450621 66.1318876 59.10559666 62 61 C61.36835937 61.30679688 60.73671875 61.61359375 60.0859375 61.9296875 C51.41434658 65.94077581 40.17030227 66.63595802 31.0625 63.6875 C20.29784896 59.64273052 10.78244772 52.06037142 5 42 C-1.28562096 28.03419909 0 15.96803663 0 0 Z " fill="#FAFAFA" transform="translate(1083,311)"/>
<path d="M0 0 C35.64 0 71.28 0 108 0 C108 14.19 108 28.38 108 43 C72.36 43 36.72 43 0 43 C0 28.81 0 14.62 0 0 Z " fill="#010101" transform="translate(1306,1198)"/>
<path d="M0 0 C21.12 0 42.24 0 64 0 C64 21.12 64 42.24 64 64 C42.88 64 21.76 64 0 64 C0 42.88 0 21.76 0 0 Z " fill="#FEFEFE" transform="translate(1101,528)"/>
<path d="M0 0 C21.45 0 42.9 0 65 0 C65 14.19 65 28.38 65 43 C43.55 43 22.1 43 0 43 C0 28.81 0 14.62 0 0 Z " fill="#020202" transform="translate(1198,1198)"/>
<path d="M0 0 C14.52 0 29.04 0 44 0 C44 14.52 44 29.04 44 44 C29.48 44 14.96 44 0 44 C0 29.48 0 14.96 0 0 Z " fill="#070707" transform="translate(938,1327)"/>
<path d="M0 0 C14.19 0 28.38 0 43 0 C43 14.19 43 28.38 43 43 C28.81 43 14.62 43 0 43 C0 28.81 0 14.62 0 0 Z " fill="#010101" transform="translate(1025,1328)"/>
<path d="M0 0 C14.19 0 28.38 0 43 0 C43 14.19 43 28.38 43 43 C28.81 43 14.62 43 0 43 C0 28.81 0 14.62 0 0 Z " fill="#010101" transform="translate(852,1328)"/>
<path d="M0 0 C0.66 0.33 1.32 0.66 2 1 C-3.33333333 6.33333333 -8.66666667 11.66666667 -14 17 C-14.68449219 17.68578125 -15.36898437 18.3715625 -16.07421875 19.078125 C-17.64420865 20.64493034 -19.22657923 22.19932191 -20.8125 23.75 C-22.75004213 25.74290048 -24.37364217 27.75407728 -26 30 C-26.66 30.66 -27.32 31.32 -28 32 C-28 28 -28 28 -25.4296875 24.97558594 C-24.25500694 23.80153847 -23.06932076 22.63843731 -21.875 21.484375 C-21.25351074 20.86854553 -20.63202148 20.25271606 -19.99169922 19.6182251 C-18.00364946 17.65257397 -16.00214837 15.70127883 -14 13.75 C-12.65013262 12.42019297 -11.30116252 11.08947445 -9.953125 9.7578125 C-6.64573748 6.4945387 -3.32621797 3.24407353 0 0 Z " fill="#EFEFEF" transform="translate(570,541)"/>
<path d="M0 0 C0.66 0.33 1.32 0.66 2 1 C-2.04785451 5.87007495 -6.23628322 10.22850039 -11.06640625 14.32421875 C-13.85985815 16.7452104 -16.41938424 19.35486884 -19 22 C-19.66 21.67 -20.32 21.34 -21 21 C-15.44650712 14.78294639 -9.96975434 8.66287161 -3.55859375 3.3046875 C-1.87806931 1.93695601 -1.87806931 1.93695601 0 0 Z " fill="#D9D9D9" transform="translate(509,444)"/>
<path d="M0 0 C0.66 0.33 1.32 0.66 2 1 C1.26394531 1.72445313 0.52789063 2.44890625 -0.23046875 3.1953125 C-7.43016311 10.30935914 -7.43016311 10.30935914 -14 18 C-14 14.36212349 -13.32111164 13.86935345 -10.9375 11.25 C-10.30585937 10.55390625 -9.67421875 9.8578125 -9.0234375 9.140625 C-6.0801692 6.02689715 -3.07130869 2.98729113 0 0 Z " fill="#1F1F1F" transform="translate(1018,1448)"/>
<path d="M0 0 C0.66 0.33 1.32 0.66 2 1 C-2.29 5.29 -6.58 9.58 -11 14 C-11 9.95136013 -9.70680732 8.98442858 -7 6 C-4.72143146 3.93123542 -2.38262895 1.94759838 0 0 Z " fill="#D5D5D5" transform="translate(928,1078)"/>
<path d="M0 0 C0.66 0.66 1.32 1.32 2 2 C-1.18683431 6.33409466 -4.86378916 9.6189962 -9 13 C-9.66 12.67 -10.32 12.34 -11 12 C-10.54109375 11.55269531 -10.0821875 11.10539063 -9.609375 10.64453125 C-6.16447701 7.25029352 -2.92744915 3.86423288 0 0 Z " fill="#282828" transform="translate(777,533)"/>
<path d="M0 0 C0.66 0.33 1.32 0.66 2 1 C-1.63 4.96 -5.26 8.92 -9 13 C-9.66 12.67 -10.32 12.34 -11 12 C-7.37 8.04 -3.74 4.08 0 0 Z " fill="#DFDFDF" transform="translate(780,464)"/>
<path d="M0 0 C0.66 0.66 1.32 1.32 2 2 C-1 5 -4 8 -7 11 C-7.66 10.67 -8.32 10.34 -9 10 C-8.27683594 9.29423828 -8.27683594 9.29423828 -7.5390625 8.57421875 C-6.90742187 7.95160156 -6.27578125 7.32898438 -5.625 6.6875 C-4.68527344 5.76517578 -4.68527344 5.76517578 -3.7265625 4.82421875 C-1.81913393 2.91187472 -1.81913393 2.91187472 0 0 Z " fill="#202020" transform="translate(787,522)"/>
<path d="M0 0 C0.66 0.33 1.32 0.66 2 1 C-1.465 3.97 -1.465 3.97 -5 7 C-5.66 6.67 -6.32 6.34 -7 6 C-4.69 4.02 -2.38 2.04 0 0 Z " fill="#D7D7D7" transform="translate(519,436)"/>
</svg>
