<?xml version="1.0" encoding="UTF-8"?>
<svg version="1.1" xmlns="http://www.w3.org/2000/svg" width="180" height="180">
<path d="M0 0 C59.4 0 118.8 0 180 0 C180 59.4 180 118.8 180 180 C120.6 180 61.2 180 0 180 C0 120.6 0 61.2 0 0 Z " fill="#FCFCFC" transform="translate(0,0)"/>
<path d="M0 0 C7.36913214 -0.04583427 14.73777263 -0.08568307 22.10693359 -0.10986328 C24.61541415 -0.11994011 27.12388292 -0.13360179 29.63232422 -0.15087891 C33.23147488 -0.17505337 36.83047067 -0.18646612 40.4296875 -0.1953125 C41.55680145 -0.20563507 42.68391541 -0.21595764 43.84518433 -0.22659302 C44.88611237 -0.22674408 45.92704041 -0.22689514 46.99951172 -0.22705078 C47.91884491 -0.231492 48.8381781 -0.23593323 49.78536987 -0.24050903 C52 0 52 0 54 2 C54.30297852 4.50610352 54.30297852 4.50610352 54.37890625 7.62890625 C54.41306641 8.74587891 54.44722656 9.86285156 54.48242188 11.01367188 C54.50884766 12.18478516 54.53527344 13.35589844 54.5625 14.5625 C54.62215655 16.87641268 54.68573897 19.19022866 54.75390625 21.50390625 C54.77783447 22.53330322 54.8017627 23.5627002 54.82641602 24.62329102 C54.736325 26.95423223 54.736325 26.95423223 56 28 C57.67332378 28.06285753 59.34923979 28.05936863 61.0234375 28.02734375 C62.044375 28.01509766 63.0653125 28.00285156 64.1171875 27.99023438 C66.28131902 27.95520347 68.4453896 27.91616977 70.609375 27.87304688 C71.63289063 27.86208984 72.65640625 27.85113281 73.7109375 27.83984375 C74.65243652 27.82300537 75.59393555 27.80616699 76.56396484 27.78881836 C79 28 79 28 82 30 C82.2863593 32.69204148 82.37835144 35.15319556 82.34057617 37.84619141 C82.34123329 39.06094902 82.34123329 39.06094902 82.34190369 40.30024719 C82.33980914 42.98426194 82.31644717 45.66765652 82.29296875 48.3515625 C82.28737515 50.20958108 82.28310394 52.06760408 82.28010559 53.92562866 C82.26863819 58.82153489 82.2391548 63.71717512 82.20599365 68.61297607 C82.16994513 74.4841258 82.15614064 80.35536435 82.13863373 86.22659302 C82.1095185 95.15124715 82.05204459 104.07531736 82 113 C55.27 113 28.54 113 1 113 C0.2452073 105.45207298 -0.24222913 98.23459092 -0.3125 90.6875 C-0.34150391 89.62982422 -0.37050781 88.57214844 -0.40039062 87.48242188 C-0.40876953 86.46083984 -0.41714844 85.43925781 -0.42578125 84.38671875 C-0.44036377 83.47108154 -0.45494629 82.55544434 -0.4699707 81.61206055 C0.14826438 78.17595814 1.7312099 76.62134154 4 74 C6.53074695 69.88964248 8.84186903 65.65579439 11.1875 61.4375 C12.14946289 59.73303711 12.14946289 59.73303711 13.13085938 57.99414062 C13.74123047 56.90166016 14.35160156 55.80917969 14.98046875 54.68359375 C15.53629639 53.68900146 16.09212402 52.69440918 16.66479492 51.66967773 C18.18672597 48.86803592 18.18672597 48.86803592 19 45 C12.73 44.34 6.46 43.68 0 43 C0 28.81 0 14.62 0 0 Z " fill="#FCFCFC" transform="translate(65,33)"/>
<path d="M0 0 C1.09526505 -0.01929062 2.19053009 -0.03858124 3.31898499 -0.05845642 C8.35748211 -0.1160714 13.39583145 -0.16552146 18.43457031 -0.19628906 C21.09006356 -0.21403611 23.74304158 -0.25188063 26.3984375 -0.29882812 C30.22485114 -0.36589956 34.04978994 -0.39330741 37.87670898 -0.41235352 C39.64746544 -0.4540995 39.64746544 -0.4540995 41.45399475 -0.49668884 C49.15039851 -0.47757747 53.33425715 0.85486583 58.87280273 6.20874023 C59.90027403 7.06847956 60.93010922 7.92540424 61.96264648 8.77905273 C62.90237305 9.62209961 63.84209961 10.46514648 64.81030273 11.33374023 C66.21602539 12.57510742 66.21602539 12.57510742 67.65014648 13.84155273 C68.73618321 14.95251743 69.80874114 16.07671053 70.87280273 17.20874023 C71.61614868 17.94403961 72.35949463 18.67933899 73.12536621 19.43692017 C81.49362932 28.84796248 81.05695703 37.71145893 80.75170898 49.84936523 C80.73489194 51.82758671 80.72209542 53.80584606 80.71311951 55.78411865 C80.67899807 60.95373742 80.59080769 66.12102638 80.49078369 71.28973389 C80.39818569 76.57882174 80.35749911 81.86829162 80.31225586 87.15795898 C80.21616221 97.50923478 80.06285984 107.85879267 79.87280273 118.20874023 C68.80745416 118.23186306 57.74211128 118.24965501 46.67674351 118.26055241 C41.53920707 118.26578137 36.40168711 118.27287925 31.26416016 118.28417969 C26.31048863 118.29500811 21.356833 118.30101697 16.40315056 118.30361748 C14.50882657 118.30547181 12.6145035 118.30909257 10.72018623 118.31447029 C8.07645888 118.32168013 5.43279803 118.3227312 2.7890625 118.32226562 C1.997845 118.3258609 1.2066275 118.32945618 0.39143372 118.3331604 C-5.0131451 118.3227924 -5.0131451 118.3227924 -6.12719727 117.20874023 C-6.34707347 114.34863182 -6.50696959 111.50715112 -6.62719727 108.64233398 C-6.66780273 107.77488052 -6.7084082 106.90742706 -6.75024414 106.01368713 C-6.88037006 103.22472265 -7.00428505 100.43553129 -7.12719727 97.64624023 C-7.25064285 94.88197537 -7.37552116 92.11780374 -7.50415039 89.35377502 C-7.58412798 87.63202536 -7.66111744 85.91013337 -7.73461914 84.18809509 C-7.96695428 79.14783016 -8.43929997 74.20781884 -9.12719727 69.20874023 C-15.99551174 74.01485607 -22.29855836 78.56426542 -24.12719727 87.20874023 C-25.11089016 94.86559307 -23.71389784 100.93606068 -19.12719727 107.20874023 C-16.30791925 109.8441523 -13.34873945 112.08911989 -10.12719727 114.20874023 C-10.45719727 115.52874023 -10.78719727 116.84874023 -11.12719727 118.20874023 C-19.18728064 117.28420126 -26.10462023 112.78008367 -31.56469727 106.83374023 C-38.064918 98.27982657 -39.58160232 89.90743195 -38.12719727 79.20874023 C-34.44847105 68.28594697 -28.10563988 60.70448147 -18.12719727 55.20874023 C-19.35653741 51.5207198 -21.06579104 50.4851705 -24.12719727 48.20874023 C-23.79719727 46.55874023 -23.46719727 44.90874023 -23.12719727 43.20874023 C-17.84719727 43.53874023 -12.56719727 43.86874023 -7.12719727 44.20874023 C-7.15813477 41.08405273 -7.15813477 41.08405273 -7.18969727 37.89624023 C-7.21791339 29.84935293 -6.96899481 21.81257172 -6.68969727 13.77124023 C-6.65046143 12.555896 -6.61122559 11.34055176 -6.57080078 10.08837891 C-6.52882568 8.95376221 -6.48685059 7.81914551 -6.44360352 6.65014648 C-6.4069458 5.62606689 -6.37028809 4.6019873 -6.33251953 3.546875 C-5.95578108 -0.74328452 -3.8354193 0.06287507 0 0 Z M-4.12719727 2.20874023 C-4.12719727 16.39874023 -4.12719727 30.58874023 -4.12719727 45.20874023 C2.14280273 45.86874023 8.41280273 46.52874023 14.87280273 47.20874023 C11.49365372 56.21980428 11.49365372 56.21980428 9.09545898 60.40795898 C8.58176758 61.30708008 8.06807617 62.20620117 7.53881836 63.13256836 C6.74507812 64.50058594 6.74507812 64.50058594 5.93530273 65.89624023 C5.41000977 66.81985352 4.8847168 67.7434668 4.34350586 68.69506836 C0.23394007 75.83923217 0.23394007 75.83923217 -2.48657227 78.62280273 C-5.27347159 83.0154869 -4.57881408 87.82311359 -4.43969727 92.89624023 C-4.4300293 93.93458008 -4.42036133 94.97291992 -4.41040039 96.04272461 C-4.31688253 102.52798526 -3.77737584 108.70695448 -3.12719727 115.20874023 C23.60280273 115.20874023 50.33280273 115.20874023 77.87280273 115.20874023 C77.96001167 100.50563259 77.96001167 100.50563259 78.01928711 85.80249023 C78.03724423 79.80859444 78.05852283 73.81483568 78.09912109 67.82104492 C78.13163641 62.99054841 78.14963918 58.16019876 78.15743446 53.32960129 C78.16299209 51.4835313 78.1738443 49.63746966 78.1899929 47.79146194 C78.21166342 45.21243961 78.21477406 42.63402986 78.21337891 40.05493164 C78.22416473 39.28601089 78.23495056 38.51709015 78.24606323 37.72486877 C78.26767897 35.38394212 78.26767897 35.38394212 77.87280273 32.20874023 C74.51874343 29.9727007 73.48860072 29.97874693 69.58374023 30.04858398 C68.56022461 30.05954102 67.53670898 30.07049805 66.48217773 30.08178711 C64.88116211 30.11369141 64.88116211 30.11369141 63.24780273 30.14624023 C61.13068078 30.18051019 59.01348722 30.21068771 56.89624023 30.23608398 C55.95699707 30.25405029 55.01775391 30.2720166 54.05004883 30.29052734 C51.87280273 30.20874023 51.87280273 30.20874023 50.87280273 29.20874023 C50.73922126 27.37974499 50.66932551 25.54601809 50.62670898 23.71264648 C50.59383789 22.59696289 50.5609668 21.4812793 50.52709961 20.33178711 C50.46600485 17.96209044 50.40870018 15.59229296 50.35522461 13.22241211 C50.32106445 12.10543945 50.2869043 10.9884668 50.25170898 9.83764648 C50.22665283 8.80712158 50.20159668 7.77659668 50.17578125 6.71484375 C50.11372136 4.03824109 50.11372136 4.03824109 47.87280273 2.20874023 C45.56784249 1.91630771 45.56784249 1.91630771 42.87231445 1.98168945 C41.83138641 1.98184052 40.79045837 1.98199158 39.71798706 1.98214722 C38.59087311 1.99246979 37.46375916 2.00279236 36.30249023 2.01342773 C35.15112579 2.01625763 33.99976135 2.01908752 32.81350708 2.02200317 C29.12483461 2.03322616 25.4364022 2.05833468 21.74780273 2.08374023 C19.25171248 2.09376729 16.75561844 2.10289362 14.25952148 2.11108398 C8.13044764 2.13147345 2.00189488 2.17061872 -4.12719727 2.20874023 Z " fill="#191919" transform="translate(69.127197265625,30.791259765625)"/>
<path d="M0 0 C11.17622319 -0.62475782 21.99566055 1.2556359 33 3 C31.71939982 7.18761663 30.13653086 10.82056379 27.9609375 14.6171875 C27.09082031 16.14472656 27.09082031 16.14472656 26.203125 17.703125 C25.59984375 18.74984375 24.9965625 19.7965625 24.375 20.875 C23.76398438 21.94492188 23.15296875 23.01484375 22.5234375 24.1171875 C21.0203689 26.74755755 19.51243714 29.37500926 18 32 C17.34 32 16.68 32 16 32 C14.99503148 28.98509443 14.89664697 26.95818308 14.9375 23.8125 C14.94652344 22.91144531 14.95554687 22.01039062 14.96484375 21.08203125 C14.97644531 20.39496094 14.98804687 19.70789063 15 19 C6.35894217 23.0225614 0.48708514 27.45487371 -4 36 C-6.15364435 42.46093305 -6.31319976 51.14188116 -3.5 57.4375 C-0.89721733 61.80376224 3.02761635 64.91465347 7 68 C6.01 68.495 6.01 68.495 5 69 C-3.22709208 63.70287834 -11.50775236 57.94750654 -14.5625 48.19140625 C-16.2209362 39.88441777 -15.30045895 32.33268604 -11 25 C-6.38752579 18.80170459 -1.1241616 13.24602087 6 10 C6.66 10 7.32 10 8 10 C6.87612881 6.62838643 6.29600597 6.27964829 3.4375 4.4375 C1.49609375 3.18359375 1.49609375 3.18359375 0 2 C0 1.34 0 0.68 0 0 Z " fill="#F6F6F6" transform="translate(48,77)"/>
<path d="M0 0 C1.09526505 -0.01929062 2.19053009 -0.03858124 3.31898499 -0.05845642 C8.35748211 -0.1160714 13.39583145 -0.16552146 18.43457031 -0.19628906 C21.09006356 -0.21403611 23.74304158 -0.25188063 26.3984375 -0.29882812 C30.22485114 -0.36589956 34.04978994 -0.39330741 37.87670898 -0.41235352 C39.64746544 -0.4540995 39.64746544 -0.4540995 41.45399475 -0.49668884 C49.15039851 -0.47757747 53.33425715 0.85486583 58.87280273 6.20874023 C59.90027403 7.06847956 60.93010922 7.92540424 61.96264648 8.77905273 C62.90237305 9.62209961 63.84209961 10.46514648 64.81030273 11.33374023 C66.21602539 12.57510742 66.21602539 12.57510742 67.65014648 13.84155273 C68.73618321 14.95251743 69.80874114 16.07671053 70.87280273 17.20874023 C71.61614868 17.94403961 72.35949463 18.67933899 73.12536621 19.43692017 C81.49362932 28.84796248 81.05695703 37.71145893 80.75170898 49.84936523 C80.73489194 51.82758671 80.72209542 53.80584606 80.71311951 55.78411865 C80.67899807 60.95373742 80.59080769 66.12102638 80.49078369 71.28973389 C80.39818569 76.57882174 80.35749911 81.86829162 80.31225586 87.15795898 C80.21616221 97.50923478 80.06285984 107.85879267 79.87280273 118.20874023 C77.89280273 117.21874023 77.89280273 117.21874023 75.87280273 116.20874023 C76.53280273 116.20874023 77.19280273 116.20874023 77.87280273 116.20874023 C77.54280273 88.48874023 77.21280273 60.76874023 76.87280273 32.20874023 C74.31918039 30.93192906 72.57036109 31.1268729 69.71655273 31.18139648 C68.69432617 31.19364258 67.67209961 31.20588867 66.61889648 31.21850586 C64.45476702 31.2536632 62.29069748 31.29272608 60.12670898 31.33569336 C59.10448242 31.34665039 58.08225586 31.35760742 57.02905273 31.36889648 C56.08868164 31.38573486 55.14831055 31.40257324 54.17944336 31.41992188 C51.87280273 31.20874023 51.87280273 31.20874023 49.87280273 29.20874023 C49.56982422 26.70263672 49.56982422 26.70263672 49.49389648 23.57983398 C49.45973633 22.46286133 49.42557617 21.34588867 49.39038086 20.19506836 C49.36395508 19.02395508 49.3375293 17.8528418 49.31030273 16.64624023 C49.25064618 14.33232756 49.18706376 12.01851158 49.11889648 9.70483398 C49.09496826 8.67543701 49.07104004 7.64604004 49.04638672 6.58544922 C49.13647774 4.254508 49.13647774 4.254508 47.87280273 3.20874023 C46.24701056 3.08592071 44.6160327 3.0309152 42.98583984 3.00341797 C41.94483627 2.98347275 40.9038327 2.96352753 39.83128357 2.94297791 C38.69900833 2.92626541 37.56673309 2.90955292 36.40014648 2.89233398 C35.2473671 2.87155289 34.09458771 2.85077179 32.90687561 2.82936096 C29.20808117 2.7637406 25.50921314 2.70492268 21.81030273 2.64624023 C19.30964395 2.60306688 16.80899272 2.55945299 14.30834961 2.51538086 C8.16324177 2.4072139 2.01808174 2.30823321 -4.12719727 2.20874023 C-4.12719727 16.39874023 -4.12719727 30.58874023 -4.12719727 45.20874023 C-1.81719727 45.20874023 0.49280273 45.20874023 2.87280273 45.20874023 C3.86280273 45.86874023 4.85280273 46.52874023 5.87280273 47.20874023 C0.92280273 47.20874023 -4.02719727 47.20874023 -9.12719727 47.20874023 C-8.13719727 46.54874023 -7.14719727 45.88874023 -6.12719727 45.20874023 C-5.69764921 43.24287743 -5.69764921 43.24287743 -5.80249023 40.95849609 C-5.80594452 40.08096176 -5.8093988 39.20342743 -5.81295776 38.29930115 C-5.83157867 37.35031448 -5.85019958 36.40132782 -5.86938477 35.42358398 C-5.87600128 34.45215958 -5.8826178 33.48073517 -5.88943481 32.47987366 C-5.91290272 29.36834499 -5.95663714 26.25751741 -6.00219727 23.14624023 C-6.03718653 20.03147651 -6.06797028 16.91675038 -6.09353638 13.80189514 C-6.11059647 11.86094238 -6.1338046 9.92003269 -6.1635437 7.97923279 C-6.17330231 7.10485062 -6.18306091 6.23046844 -6.19311523 5.32958984 C-6.20438446 4.55618759 -6.21565369 3.78278534 -6.2272644 2.98594666 C-6.01278416 -0.82325256 -3.17905016 0.05211503 0 0 Z " fill="#090909" transform="translate(69.127197265625,30.791259765625)"/>
<path d="M0 0 C2 2 2 2 2.23046875 5.44140625 C2.22647911 6.81517304 2.21173177 8.18894114 2.1875 9.5625 C2.18685547 10.26052734 2.18621094 10.95855469 2.18554688 11.67773438 C2.14031158 16.85968842 2.14031158 16.85968842 1 18 C-1.53049402 18.07313567 -4.03304837 18.09247527 -6.5625 18.0625 C-7.27341797 18.05798828 -7.98433594 18.05347656 -8.71679688 18.04882812 C-10.47790013 18.03700864 -12.23896036 18.01907263 -14 18 C-11.42215154 20.64752004 -9.08351902 22.94432065 -6 25 C-6 25.99 -6 26.98 -6 28 C-7.90625 29.2890625 -7.90625 29.2890625 -10.5 30.625 C-18.56743494 35.26434644 -24.30095088 41.53309942 -27.375 50.3984375 C-29.39275521 58.79734357 -28.33934061 66.52101883 -24 74 C-20.12851844 79.00226083 -15.5882283 82.14886311 -10 85 C-10.47050781 84.57589844 -10.94101562 84.15179688 -11.42578125 83.71484375 C-17.99015655 77.53101195 -20.13060411 73.05838572 -20.4375 64.0625 C-20.29987229 57.90857513 -19.50474963 54.06241613 -16 49 C-13.859375 47.796875 -13.859375 47.796875 -12 47 C-13.10693197 49.80990423 -14.25108395 52.49251082 -15.625 55.1875 C-17.91220336 60.63434512 -17.92784235 65.99683876 -16.19140625 71.6171875 C-13.26745574 78.27448658 -9.00486784 82.04908478 -3 86 C-3.33 87.32 -3.66 88.64 -4 90 C-12.06008338 89.07546102 -18.97742297 84.57134343 -24.4375 78.625 C-30.93772074 70.07108633 -32.45440505 61.69869172 -31 51 C-27.32127378 40.07720674 -20.97844262 32.49574124 -11 27 C-12.22934015 23.31197956 -13.93859378 22.27643027 -17 20 C-16.67 18.35 -16.34 16.7 -16 15 C-10.72 15.33 -5.44 15.66 0 16 C0 10.72 0 5.44 0 0 Z " fill="#1B1B1B" transform="translate(62,59)"/>
<path d="M0 0 C9.01571649 6.76178737 9.01571649 6.76178737 11.7734375 9.5078125 C12.66869141 10.39919922 12.66869141 10.39919922 13.58203125 11.30859375 C14.17371094 11.90800781 14.76539063 12.50742187 15.375 13.125 C15.98988281 13.73214844 16.60476562 14.33929688 17.23828125 14.96484375 C17.82738281 15.55652344 18.41648438 16.14820312 19.0234375 16.7578125 C19.54856934 17.2852002 20.07370117 17.81258789 20.61474609 18.35595703 C22 20 22 20 24 24 C16.08 24 8.16 24 0 24 C0 16.08 0 8.16 0 0 Z " fill="#F3F3F3" transform="translate(121,35)"/>
<path d="M0 0 C0.33 0 0.66 0 1 0 C1 28.71 1 57.42 1 87 C-0.32 86.34 -1.64 85.68 -3 85 C-2.34 85 -1.68 85 -1 85 C-1.00222061 83.94986221 -1.00444122 82.89972443 -1.00672913 81.81776428 C-1.02696015 71.94354419 -1.04197195 62.06932828 -1.05181217 52.1950922 C-1.0570411 47.11808982 -1.06413892 42.04110411 -1.07543945 36.96411133 C-1.08626799 32.06879448 -1.09227676 27.17349371 -1.09487724 22.27816582 C-1.09673155 20.40617049 -1.10035228 18.53417609 -1.10573006 16.66218758 C-1.11294004 14.04959301 -1.11399096 11.43706573 -1.11352539 8.82446289 C-1.1189183 7.65166275 -1.1189183 7.65166275 -1.12442017 6.45516968 C-1.11405216 1.11405216 -1.11405216 1.11405216 0 0 Z " fill="#070707" transform="translate(148,62)"/>
<path d="M0 0 C0.33 0 0.66 0 1 0 C1.33 6.6 1.66 13.2 2 20 C9.59 19.67 17.18 19.34 25 19 C23.5975 17.4325 22.195 15.865 20.75 14.25 C19.96109375 13.36828125 19.1721875 12.4865625 18.359375 11.578125 C16.08331826 8.99841503 16.08331826 8.99841503 13.640625 6.921875 C12.82851562 5.97054687 12.82851562 5.97054687 12 5 C12.25 2.75 12.25 2.75 13 1 C17.79161909 5.43910216 22.08878971 10.13809461 26.0625 15.3125 C26.83722656 16.31925781 27.61195313 17.32601562 28.41015625 18.36328125 C28.93480469 19.23339844 29.45945313 20.10351562 30 21 C29.67 21.99 29.34 22.98 29 24 C28.17556396 23.75334595 28.17556396 23.75334595 27.33447266 23.50170898 C24.69330084 22.9340863 22.3489535 22.92048028 19.6484375 22.97265625 C18.12476563 22.99102539 18.12476563 22.99102539 16.5703125 23.00976562 C14.43222601 23.04505189 12.29419906 23.08414225 10.15625 23.12695312 C9.14304688 23.13791016 8.12984375 23.14886719 7.0859375 23.16015625 C6.1582959 23.17699463 5.2306543 23.19383301 4.27490234 23.21118164 C2 23 2 23 0 21 C-0.22705078 18.84521484 -0.22705078 18.84521484 -0.1953125 16.2109375 C-0.18886719 15.26992188 -0.18242188 14.32890625 -0.17578125 13.359375 C-0.15902344 12.37453125 -0.14226562 11.3896875 -0.125 10.375 C-0.11597656 9.38242187 -0.10695313 8.38984375 -0.09765625 7.3671875 C-0.07404116 4.91121866 -0.04110799 2.45572832 0 0 Z " fill="#0F0F0F" transform="translate(119,39)"/>
<path d="M0 0 C42.8020126 -0.20638953 42.8020126 -0.20638953 64 1 C64 1.99 64 2.98 64 4 C52.15623588 4.07397216 40.33800546 3.84660303 28.5 3.5 C26.79037039 3.45161732 25.08073498 3.40343921 23.37109375 3.35546875 C19.24732545 3.23932639 15.1236445 3.1204545 11 3 C11 2.67 11 2.34 11 2 C7.37 1.67 3.74 1.34 0 1 C0 0.67 0 0.34 0 0 Z " fill="#444444" transform="translate(83,145)"/>
<path d="M0 0 C-0.54046873 4.68406228 -1.82493038 7.97330174 -4.16015625 12.0546875 C-4.78857422 13.16328125 -5.41699219 14.271875 -6.06445312 15.4140625 C-6.72380859 16.55617188 -7.38316406 17.69828125 -8.0625 18.875 C-8.73325216 20.0516104 -9.40318243 21.22868974 -10.07226562 22.40625 C-11.70682379 25.27554634 -13.34959196 28.13980064 -15 31 C-15.99 30.34 -16.98 29.68 -18 29 C-17.61666504 28.32420898 -17.23333008 27.64841797 -16.83837891 26.95214844 C-15.09954554 23.88535417 -13.36225679 20.81768762 -11.625 17.75 C-11.02171875 16.68652344 -10.4184375 15.62304688 -9.796875 14.52734375 C-9.21679688 13.50253906 -8.63671875 12.47773437 -8.0390625 11.421875 C-7.50490723 10.47924805 -6.97075195 9.53662109 -6.42041016 8.56542969 C-5.22511518 6.40658478 -4.1035707 4.20714139 -3 2 C-6.96 1.67 -10.92 1.34 -15 1 C-15 0.67 -15 0.34 -15 0 C-4.21052632 -2.10526316 -4.21052632 -2.10526316 0 0 Z " fill="#161616" transform="translate(84,78)"/>
<path d="M0 0 C2 2 2 2 2.23046875 5.44140625 C2.22647911 6.81517304 2.21173177 8.18894114 2.1875 9.5625 C2.18685547 10.26052734 2.18621094 10.95855469 2.18554688 11.67773438 C2.14031158 16.85968842 2.14031158 16.85968842 1 18 C-1.86267567 18.07325168 -4.700719 18.09238205 -7.5625 18.0625 C-8.36880859 18.05798828 -9.17511719 18.05347656 -10.00585938 18.04882812 C-12.00393756 18.03700518 -14.00197783 18.01906914 -16 18 C-16.33 18.66 -16.66 19.32 -17 20 C-16.67 18.35 -16.34 16.7 -16 15 C-10.72 15.33 -5.44 15.66 0 16 C0 10.72 0 5.44 0 0 Z " fill="#2D2D2D" transform="translate(62,59)"/>
<path d="M0 0 C0.66 0 1.32 0 2 0 C0.90783114 2.77242864 -0.2025555 5.37394862 -1.625 8 C-3.98355514 13.32156411 -3.23095017 19.3117828 -3 25 C-3.99 24.67 -4.98 24.34 -6 24 C-6.42601954 15.57428027 -6.70109455 9.18990932 -2 2 C-1.34 1.34 -0.68 0.68 0 0 Z " fill="#1E1E1E" transform="translate(48,106)"/>
<path d="M0 0 C0.99 0 1.98 0 3 0 C3 0.99 3 1.98 3 3 C4.32 2.67 5.64 2.34 7 2 C6.67854004 2.57073242 6.35708008 3.14146484 6.02587891 3.72949219 C4.95230161 6.10556758 4.69680791 7.74114872 4.5859375 10.328125 C4.54726562 11.12734375 4.50859375 11.9265625 4.46875 12.75 C4.4378125 13.575 4.406875 14.4 4.375 15.25 C4.33632812 16.09046875 4.29765625 16.9309375 4.2578125 17.796875 C4.16384164 19.86423382 4.08084436 21.93208627 4 24 C3.01 23.34 2.02 22.68 1 22 C0.56762695 19.75341797 0.56762695 19.75341797 0.48828125 16.9921875 C0.45283203 16.00605469 0.41738281 15.01992187 0.38085938 14.00390625 C0.35830078 12.97136719 0.33574219 11.93882813 0.3125 10.875 C0.27833984 9.83472656 0.24417969 8.79445313 0.20898438 7.72265625 C0.12632942 5.14854493 0.05723845 2.57478171 0 0 Z " fill="#3D3D3D" transform="translate(61,106)"/>
<path d="M0 0 C0.33 0 0.66 0 1 0 C1.33 6.6 1.66 13.2 2 20 C5.3 20 8.6 20 12 20 C12.33 20.99 12.66 21.98 13 23 C11.20866022 23.05391993 9.41686101 23.09275571 7.625 23.125 C6.62726563 23.14820312 5.62953125 23.17140625 4.6015625 23.1953125 C2 23 2 23 0 21 C-0.22705078 18.84521484 -0.22705078 18.84521484 -0.1953125 16.2109375 C-0.18886719 15.26992188 -0.18242188 14.32890625 -0.17578125 13.359375 C-0.15902344 12.37453125 -0.14226562 11.3896875 -0.125 10.375 C-0.11597656 9.38242187 -0.10695313 8.38984375 -0.09765625 7.3671875 C-0.07404116 4.91121866 -0.04110799 2.45572832 0 0 Z " fill="#2E2E2E" transform="translate(119,39)"/>
<path d="M0 0 C0.99 0 1.98 0 3 0 C3.23074219 0.65226562 3.46148437 1.30453125 3.69921875 1.9765625 C5.7838032 7.56291924 7.89547701 11.66744795 12 16 C11.34 16.66 10.68 17.32 10 18 C5.41833202 13.25033753 0 6.97336246 0 0 Z " fill="#1C1C1C" transform="translate(31,123)"/>
<path d="M0 0 C-0.75 5.75 -0.75 5.75 -3 8 C-3.66 7.34 -4.32 6.68 -5 6 C-4.34 4.68 -3.68 3.36 -3 2 C-6.96 1.67 -10.92 1.34 -15 1 C-15 0.67 -15 0.34 -15 0 C-4.21052632 -2.10526316 -4.21052632 -2.10526316 0 0 Z " fill="#2E2E2E" transform="translate(84,78)"/>
<path d="M0 0 C0.99 0.33 1.98 0.66 3 1 C2.5359375 2.1446875 2.5359375 2.1446875 2.0625 3.3125 C0.66197419 8.17314841 0.34020266 12.96858173 0 18 C-0.66 18 -1.32 18 -2 18 C-2.054348 15.9377952 -2.09294961 13.87517184 -2.125 11.8125 C-2.14820312 10.66394531 -2.17140625 9.51539062 -2.1953125 8.33203125 C-2.00484152 5.08259628 -1.39360127 2.91339479 0 0 Z " fill="#131313" transform="translate(33,105)"/>
<path d="M0 0 C0.33 0 0.66 0 1 0 C1 4.95 1 9.9 1 15 C3.31 15 5.62 15 8 15 C8.99 15.66 9.98 16.32 11 17 C6.05 17 1.1 17 -4 17 C-3.01 16.34 -2.02 15.68 -1 15 C-0.61588725 12.390379 -0.39706803 9.9941926 -0.3125 7.375 C-0.27833984 6.66859375 -0.24417969 5.9621875 -0.20898438 5.234375 C-0.12648692 3.49014312 -0.06156665 1.74509605 0 0 Z " fill="#1A1A1A" transform="translate(64,61)"/>
<path d="M0 0 C3.82946843 1.45255699 5.12050295 3.42895561 7 7 C4.36 7 1.72 7 -1 7 C-0.7525 6.1028125 -0.7525 6.1028125 -0.5 5.1875 C0.1114124 2.88655664 0.1114124 2.88655664 0 0 Z " fill="#EBEBEB" transform="translate(138,52)"/>
<path d="M0 0 C1.12894876 0.93274109 2.25300876 1.87140122 3.375 2.8125 C4.00148437 3.33457031 4.62796875 3.85664062 5.2734375 4.39453125 C7 6 7 6 9 9 C8.01 9.33 7.02 9.66 6 10 C4.98808455 9.09650406 3.99081074 8.17659153 3 7.25 C2.1646875 6.48429687 2.1646875 6.48429687 1.3125 5.703125 C0 4 0 4 0 0 Z " fill="#333333" transform="translate(131,40)"/>
<path d="M0 0 C4.10839064 1.45002023 7.50344613 3.3979134 11 6 C11 6.66 11 7.32 11 8 C5.95575532 7.55491959 3.55556591 5.39019075 0 2 C0 1.34 0 0.68 0 0 Z " fill="#181818" transform="translate(42,139)"/>
<path d="M0 0 C3.96 0 7.92 0 12 0 C10.02 0.99 10.02 0.99 8 2 C6.64886795 2.97581759 5.31053056 3.97029741 4 5 C2 3.625 2 3.625 0 2 C0 1.34 0 0.68 0 0 Z " fill="#E3E3E3" transform="translate(48,77)"/>
<path d="M0 0 C0.70125 0.721875 1.4025 1.44375 2.125 2.1875 C4.92770745 4.99823813 7.92262792 7.49516226 11 10 C10.01 10.495 10.01 10.495 9 11 C5.7 8.69 2.4 6.38 -1 4 C-0.67 2.68 -0.34 1.36 0 0 Z " fill="#EBEBEB" transform="translate(44,135)"/>
<path d="M0 0 C0.33 0 0.66 0 1 0 C1.33 4.62 1.66 9.24 2 14 C1.01 13.67 0.02 13.34 -1 13 C-1.02708567 11.39592672 -1.04643483 9.7917215 -1.0625 8.1875 C-1.07410156 7.29417969 -1.08570313 6.40085937 -1.09765625 5.48046875 C-1 3 -1 3 0 0 Z " fill="#0D0D0D" transform="translate(43,117)"/>
<path d="M0 0 C0.99 0.66 1.98 1.32 3 2 C1.35 4.97 -0.3 7.94 -2 11 C-2.99 10.34 -3.98 9.68 -5 9 C-3.35 6.03 -1.7 3.06 0 0 Z " fill="#222222" transform="translate(71,98)"/>
<path d="M0 0 C0.66 0 1.32 0 2 0 C2 3.63 2 7.26 2 11 C1.34 10.67 0.68 10.34 0 10 C0 7.69 0 5.38 0 3 C-0.66 2.67 -1.32 2.34 -2 2 C-1.34 1.34 -0.68 0.68 0 0 Z " fill="#0C0C0C" transform="translate(61,96)"/>
<path d="M0 0 C1.98 0 3.96 0 6 0 C6 0.99 6 1.98 6 3 C4.02 3 2.04 3 0 3 C-0.33 3.66 -0.66 4.32 -1 5 C-0.67 3.35 -0.34 1.7 0 0 Z " fill="#393939" transform="translate(46,74)"/>
<path d="M0 0 C0.66 0.33 1.32 0.66 2 1 C1.67 2.32 1.34 3.64 1 5 C-1.97 4.505 -1.97 4.505 -5 4 C-4.67 3.34 -4.34 2.68 -4 2 C-2.68 2 -1.36 2 0 2 C0 1.34 0 0.68 0 0 Z " fill="#262626" transform="translate(57,144)"/>
<path d="M0 0 C1.875 0.3125 1.875 0.3125 4 1 C4.66 1.99 5.32 2.98 6 4 C5.34 4.66 4.68 5.32 4 6 C2.62437146 4.71034824 1.29233607 3.37310707 0 2 C0 1.34 0 0.68 0 0 Z " fill="#303030" transform="translate(37,135)"/>
</svg>
